<?xml version="1.0" encoding="utf-8" standalone="no"?>
<!DOCTYPE svg PUBLIC "-//W3C//DTD SVG 1.1//EN"
  "http://www.w3.org/Graphics/SVG/1.1/DTD/svg11.dtd">
<svg xmlns:xlink="http://www.w3.org/1999/xlink" width="956.40125pt" height="351.895313pt" viewBox="0 0 956.40125 351.895313" xmlns="http://www.w3.org/2000/svg" version="1.1">
 <metadata>
  <rdf:RDF xmlns:dc="http://purl.org/dc/elements/1.1/" xmlns:cc="http://creativecommons.org/ns#" xmlns:rdf="http://www.w3.org/1999/02/22-rdf-syntax-ns#">
   <cc:Work>
    <dc:type rdf:resource="http://purl.org/dc/dcmitype/StillImage"/>
    <dc:date>2022-10-12T12:57:46.363913</dc:date>
    <dc:format>image/svg+xml</dc:format>
    <dc:creator>
     <cc:Agent>
      <dc:title>Matplotlib v3.6.1, https://matplotlib.org/</dc:title>
     </cc:Agent>
    </dc:creator>
   </cc:Work>
  </rdf:RDF>
 </metadata>
 <defs>
  <style type="text/css">*{stroke-linejoin: round; stroke-linecap: butt}</style>
 </defs>
 <g id="figure_1">
  <g id="patch_1">
   <path d="M 0 351.895313 
L 956.40125 351.895313 
L 956.40125 0 
L 0 0 
z
" style="fill: #ffffff"/>
  </g>
  <g id="axes_1">
   <g id="patch_2">
    <path d="M 43.78125 314.060938 
L 335.67985 314.060938 
L 335.67985 20.842188 
L 43.78125 20.842188 
z
" style="fill: #ffffff"/>
   </g>
   <g id="matplotlib.axis_1">
    <g id="xtick_1">
     <g id="line2d_1">
      <defs>
       <path id="m698b84a539" d="M 0 0 
L 0 3.5 
" style="stroke: #000000; stroke-width: 0.8"/>
      </defs>
      <g>
       <use xlink:href="#m698b84a539" x="56.066619" y="314.060938" style="stroke: #000000; stroke-width: 0.8"/>
      </g>
     </g>
     <g id="text_1">
      <!-- 0 -->
      <g transform="translate(52.885369 328.659375) scale(0.1 -0.1)">
       <defs>
        <path id="DejaVuSans-30" d="M 2034 4250 
Q 1547 4250 1301 3770 
Q 1056 3291 1056 2328 
Q 1056 1369 1301 889 
Q 1547 409 2034 409 
Q 2525 409 2770 889 
Q 3016 1369 3016 2328 
Q 3016 3291 2770 3770 
Q 2525 4250 2034 4250 
z
M 2034 4750 
Q 2819 4750 3233 4129 
Q 3647 3509 3647 2328 
Q 3647 1150 3233 529 
Q 2819 -91 2034 -91 
Q 1250 -91 836 529 
Q 422 1150 422 2328 
Q 422 3509 836 4129 
Q 1250 4750 2034 4750 
z
" transform="scale(0.015625)"/>
       </defs>
       <use xlink:href="#DejaVuSans-30"/>
      </g>
     </g>
    </g>
    <g id="xtick_2">
     <g id="line2d_2">
      <g>
       <use xlink:href="#m698b84a539" x="105.952388" y="314.060938" style="stroke: #000000; stroke-width: 0.8"/>
      </g>
     </g>
     <g id="text_2">
      <!-- 20 -->
      <g transform="translate(99.589888 328.659375) scale(0.1 -0.1)">
       <defs>
        <path id="DejaVuSans-32" d="M 1228 531 
L 3431 531 
L 3431 0 
L 469 0 
L 469 531 
Q 828 903 1448 1529 
Q 2069 2156 2228 2338 
Q 2531 2678 2651 2914 
Q 2772 3150 2772 3378 
Q 2772 3750 2511 3984 
Q 2250 4219 1831 4219 
Q 1534 4219 1204 4116 
Q 875 4013 500 3803 
L 500 4441 
Q 881 4594 1212 4672 
Q 1544 4750 1819 4750 
Q 2544 4750 2975 4387 
Q 3406 4025 3406 3419 
Q 3406 3131 3298 2873 
Q 3191 2616 2906 2266 
Q 2828 2175 2409 1742 
Q 1991 1309 1228 531 
z
" transform="scale(0.015625)"/>
       </defs>
       <use xlink:href="#DejaVuSans-32"/>
       <use xlink:href="#DejaVuSans-30" x="63.623047"/>
      </g>
     </g>
    </g>
    <g id="xtick_3">
     <g id="line2d_3">
      <g>
       <use xlink:href="#m698b84a539" x="155.838158" y="314.060938" style="stroke: #000000; stroke-width: 0.8"/>
      </g>
     </g>
     <g id="text_3">
      <!-- 40 -->
      <g transform="translate(149.475658 328.659375) scale(0.1 -0.1)">
       <defs>
        <path id="DejaVuSans-34" d="M 2419 4116 
L 825 1625 
L 2419 1625 
L 2419 4116 
z
M 2253 4666 
L 3047 4666 
L 3047 1625 
L 3713 1625 
L 3713 1100 
L 3047 1100 
L 3047 0 
L 2419 0 
L 2419 1100 
L 313 1100 
L 313 1709 
L 2253 4666 
z
" transform="scale(0.015625)"/>
       </defs>
       <use xlink:href="#DejaVuSans-34"/>
       <use xlink:href="#DejaVuSans-30" x="63.623047"/>
      </g>
     </g>
    </g>
    <g id="xtick_4">
     <g id="line2d_4">
      <g>
       <use xlink:href="#m698b84a539" x="205.723928" y="314.060938" style="stroke: #000000; stroke-width: 0.8"/>
      </g>
     </g>
     <g id="text_4">
      <!-- 60 -->
      <g transform="translate(199.361428 328.659375) scale(0.1 -0.1)">
       <defs>
        <path id="DejaVuSans-36" d="M 2113 2584 
Q 1688 2584 1439 2293 
Q 1191 2003 1191 1497 
Q 1191 994 1439 701 
Q 1688 409 2113 409 
Q 2538 409 2786 701 
Q 3034 994 3034 1497 
Q 3034 2003 2786 2293 
Q 2538 2584 2113 2584 
z
M 3366 4563 
L 3366 3988 
Q 3128 4100 2886 4159 
Q 2644 4219 2406 4219 
Q 1781 4219 1451 3797 
Q 1122 3375 1075 2522 
Q 1259 2794 1537 2939 
Q 1816 3084 2150 3084 
Q 2853 3084 3261 2657 
Q 3669 2231 3669 1497 
Q 3669 778 3244 343 
Q 2819 -91 2113 -91 
Q 1303 -91 875 529 
Q 447 1150 447 2328 
Q 447 3434 972 4092 
Q 1497 4750 2381 4750 
Q 2619 4750 2861 4703 
Q 3103 4656 3366 4563 
z
" transform="scale(0.015625)"/>
       </defs>
       <use xlink:href="#DejaVuSans-36"/>
       <use xlink:href="#DejaVuSans-30" x="63.623047"/>
      </g>
     </g>
    </g>
    <g id="xtick_5">
     <g id="line2d_5">
      <g>
       <use xlink:href="#m698b84a539" x="255.609698" y="314.060938" style="stroke: #000000; stroke-width: 0.8"/>
      </g>
     </g>
     <g id="text_5">
      <!-- 80 -->
      <g transform="translate(249.247198 328.659375) scale(0.1 -0.1)">
       <defs>
        <path id="DejaVuSans-38" d="M 2034 2216 
Q 1584 2216 1326 1975 
Q 1069 1734 1069 1313 
Q 1069 891 1326 650 
Q 1584 409 2034 409 
Q 2484 409 2743 651 
Q 3003 894 3003 1313 
Q 3003 1734 2745 1975 
Q 2488 2216 2034 2216 
z
M 1403 2484 
Q 997 2584 770 2862 
Q 544 3141 544 3541 
Q 544 4100 942 4425 
Q 1341 4750 2034 4750 
Q 2731 4750 3128 4425 
Q 3525 4100 3525 3541 
Q 3525 3141 3298 2862 
Q 3072 2584 2669 2484 
Q 3125 2378 3379 2068 
Q 3634 1759 3634 1313 
Q 3634 634 3220 271 
Q 2806 -91 2034 -91 
Q 1263 -91 848 271 
Q 434 634 434 1313 
Q 434 1759 690 2068 
Q 947 2378 1403 2484 
z
M 1172 3481 
Q 1172 3119 1398 2916 
Q 1625 2713 2034 2713 
Q 2441 2713 2670 2916 
Q 2900 3119 2900 3481 
Q 2900 3844 2670 4047 
Q 2441 4250 2034 4250 
Q 1625 4250 1398 4047 
Q 1172 3844 1172 3481 
z
" transform="scale(0.015625)"/>
       </defs>
       <use xlink:href="#DejaVuSans-38"/>
       <use xlink:href="#DejaVuSans-30" x="63.623047"/>
      </g>
     </g>
    </g>
    <g id="xtick_6">
     <g id="line2d_6">
      <g>
       <use xlink:href="#m698b84a539" x="305.495467" y="314.060938" style="stroke: #000000; stroke-width: 0.8"/>
      </g>
     </g>
     <g id="text_6">
      <!-- 100 -->
      <g transform="translate(295.951717 328.659375) scale(0.1 -0.1)">
       <defs>
        <path id="DejaVuSans-31" d="M 794 531 
L 1825 531 
L 1825 4091 
L 703 3866 
L 703 4441 
L 1819 4666 
L 2450 4666 
L 2450 531 
L 3481 531 
L 3481 0 
L 794 0 
L 794 531 
z
" transform="scale(0.015625)"/>
       </defs>
       <use xlink:href="#DejaVuSans-31"/>
       <use xlink:href="#DejaVuSans-30" x="63.623047"/>
       <use xlink:href="#DejaVuSans-30" x="127.246094"/>
      </g>
     </g>
    </g>
    <g id="text_7">
     <!-- latency_ms -->
     <g transform="translate(161.388362 342.3375) scale(0.1 -0.1)">
      <defs>
       <path id="DejaVuSans-6c" d="M 603 4863 
L 1178 4863 
L 1178 0 
L 603 0 
L 603 4863 
z
" transform="scale(0.015625)"/>
       <path id="DejaVuSans-61" d="M 2194 1759 
Q 1497 1759 1228 1600 
Q 959 1441 959 1056 
Q 959 750 1161 570 
Q 1363 391 1709 391 
Q 2188 391 2477 730 
Q 2766 1069 2766 1631 
L 2766 1759 
L 2194 1759 
z
M 3341 1997 
L 3341 0 
L 2766 0 
L 2766 531 
Q 2569 213 2275 61 
Q 1981 -91 1556 -91 
Q 1019 -91 701 211 
Q 384 513 384 1019 
Q 384 1609 779 1909 
Q 1175 2209 1959 2209 
L 2766 2209 
L 2766 2266 
Q 2766 2663 2505 2880 
Q 2244 3097 1772 3097 
Q 1472 3097 1187 3025 
Q 903 2953 641 2809 
L 641 3341 
Q 956 3463 1253 3523 
Q 1550 3584 1831 3584 
Q 2591 3584 2966 3190 
Q 3341 2797 3341 1997 
z
" transform="scale(0.015625)"/>
       <path id="DejaVuSans-74" d="M 1172 4494 
L 1172 3500 
L 2356 3500 
L 2356 3053 
L 1172 3053 
L 1172 1153 
Q 1172 725 1289 603 
Q 1406 481 1766 481 
L 2356 481 
L 2356 0 
L 1766 0 
Q 1100 0 847 248 
Q 594 497 594 1153 
L 594 3053 
L 172 3053 
L 172 3500 
L 594 3500 
L 594 4494 
L 1172 4494 
z
" transform="scale(0.015625)"/>
       <path id="DejaVuSans-65" d="M 3597 1894 
L 3597 1613 
L 953 1613 
Q 991 1019 1311 708 
Q 1631 397 2203 397 
Q 2534 397 2845 478 
Q 3156 559 3463 722 
L 3463 178 
Q 3153 47 2828 -22 
Q 2503 -91 2169 -91 
Q 1331 -91 842 396 
Q 353 884 353 1716 
Q 353 2575 817 3079 
Q 1281 3584 2069 3584 
Q 2775 3584 3186 3129 
Q 3597 2675 3597 1894 
z
M 3022 2063 
Q 3016 2534 2758 2815 
Q 2500 3097 2075 3097 
Q 1594 3097 1305 2825 
Q 1016 2553 972 2059 
L 3022 2063 
z
" transform="scale(0.015625)"/>
       <path id="DejaVuSans-6e" d="M 3513 2113 
L 3513 0 
L 2938 0 
L 2938 2094 
Q 2938 2591 2744 2837 
Q 2550 3084 2163 3084 
Q 1697 3084 1428 2787 
Q 1159 2491 1159 1978 
L 1159 0 
L 581 0 
L 581 3500 
L 1159 3500 
L 1159 2956 
Q 1366 3272 1645 3428 
Q 1925 3584 2291 3584 
Q 2894 3584 3203 3211 
Q 3513 2838 3513 2113 
z
" transform="scale(0.015625)"/>
       <path id="DejaVuSans-63" d="M 3122 3366 
L 3122 2828 
Q 2878 2963 2633 3030 
Q 2388 3097 2138 3097 
Q 1578 3097 1268 2742 
Q 959 2388 959 1747 
Q 959 1106 1268 751 
Q 1578 397 2138 397 
Q 2388 397 2633 464 
Q 2878 531 3122 666 
L 3122 134 
Q 2881 22 2623 -34 
Q 2366 -91 2075 -91 
Q 1284 -91 818 406 
Q 353 903 353 1747 
Q 353 2603 823 3093 
Q 1294 3584 2113 3584 
Q 2378 3584 2631 3529 
Q 2884 3475 3122 3366 
z
" transform="scale(0.015625)"/>
       <path id="DejaVuSans-79" d="M 2059 -325 
Q 1816 -950 1584 -1140 
Q 1353 -1331 966 -1331 
L 506 -1331 
L 506 -850 
L 844 -850 
Q 1081 -850 1212 -737 
Q 1344 -625 1503 -206 
L 1606 56 
L 191 3500 
L 800 3500 
L 1894 763 
L 2988 3500 
L 3597 3500 
L 2059 -325 
z
" transform="scale(0.015625)"/>
       <path id="DejaVuSans-5f" d="M 3263 -1063 
L 3263 -1509 
L -63 -1509 
L -63 -1063 
L 3263 -1063 
z
" transform="scale(0.015625)"/>
       <path id="DejaVuSans-6d" d="M 3328 2828 
Q 3544 3216 3844 3400 
Q 4144 3584 4550 3584 
Q 5097 3584 5394 3201 
Q 5691 2819 5691 2113 
L 5691 0 
L 5113 0 
L 5113 2094 
Q 5113 2597 4934 2840 
Q 4756 3084 4391 3084 
Q 3944 3084 3684 2787 
Q 3425 2491 3425 1978 
L 3425 0 
L 2847 0 
L 2847 2094 
Q 2847 2600 2669 2842 
Q 2491 3084 2119 3084 
Q 1678 3084 1418 2786 
Q 1159 2488 1159 1978 
L 1159 0 
L 581 0 
L 581 3500 
L 1159 3500 
L 1159 2956 
Q 1356 3278 1631 3431 
Q 1906 3584 2284 3584 
Q 2666 3584 2933 3390 
Q 3200 3197 3328 2828 
z
" transform="scale(0.015625)"/>
       <path id="DejaVuSans-73" d="M 2834 3397 
L 2834 2853 
Q 2591 2978 2328 3040 
Q 2066 3103 1784 3103 
Q 1356 3103 1142 2972 
Q 928 2841 928 2578 
Q 928 2378 1081 2264 
Q 1234 2150 1697 2047 
L 1894 2003 
Q 2506 1872 2764 1633 
Q 3022 1394 3022 966 
Q 3022 478 2636 193 
Q 2250 -91 1575 -91 
Q 1294 -91 989 -36 
Q 684 19 347 128 
L 347 722 
Q 666 556 975 473 
Q 1284 391 1588 391 
Q 1994 391 2212 530 
Q 2431 669 2431 922 
Q 2431 1156 2273 1281 
Q 2116 1406 1581 1522 
L 1381 1569 
Q 847 1681 609 1914 
Q 372 2147 372 2553 
Q 372 3047 722 3315 
Q 1072 3584 1716 3584 
Q 2034 3584 2315 3537 
Q 2597 3491 2834 3397 
z
" transform="scale(0.015625)"/>
      </defs>
      <use xlink:href="#DejaVuSans-6c"/>
      <use xlink:href="#DejaVuSans-61" x="27.783203"/>
      <use xlink:href="#DejaVuSans-74" x="89.0625"/>
      <use xlink:href="#DejaVuSans-65" x="128.271484"/>
      <use xlink:href="#DejaVuSans-6e" x="189.794922"/>
      <use xlink:href="#DejaVuSans-63" x="253.173828"/>
      <use xlink:href="#DejaVuSans-79" x="308.154297"/>
      <use xlink:href="#DejaVuSans-5f" x="367.333984"/>
      <use xlink:href="#DejaVuSans-6d" x="417.333984"/>
      <use xlink:href="#DejaVuSans-73" x="514.746094"/>
     </g>
    </g>
   </g>
   <g id="matplotlib.axis_2">
    <g id="ytick_1">
     <g id="line2d_7">
      <defs>
       <path id="m429f4b58bd" d="M 0 0 
L -3.5 0 
" style="stroke: #000000; stroke-width: 0.8"/>
      </defs>
      <g>
       <use xlink:href="#m429f4b58bd" x="43.78125" y="314.060938" style="stroke: #000000; stroke-width: 0.8"/>
      </g>
     </g>
     <g id="text_8">
      <!-- 0.0 -->
      <g transform="translate(20.878125 317.860156) scale(0.1 -0.1)">
       <defs>
        <path id="DejaVuSans-2e" d="M 684 794 
L 1344 794 
L 1344 0 
L 684 0 
L 684 794 
z
" transform="scale(0.015625)"/>
       </defs>
       <use xlink:href="#DejaVuSans-30"/>
       <use xlink:href="#DejaVuSans-2e" x="63.623047"/>
       <use xlink:href="#DejaVuSans-30" x="95.410156"/>
      </g>
     </g>
    </g>
    <g id="ytick_2">
     <g id="line2d_8">
      <g>
       <use xlink:href="#m429f4b58bd" x="43.78125" y="255.417188" style="stroke: #000000; stroke-width: 0.8"/>
      </g>
     </g>
     <g id="text_9">
      <!-- 0.2 -->
      <g transform="translate(20.878125 259.216406) scale(0.1 -0.1)">
       <use xlink:href="#DejaVuSans-30"/>
       <use xlink:href="#DejaVuSans-2e" x="63.623047"/>
       <use xlink:href="#DejaVuSans-32" x="95.410156"/>
      </g>
     </g>
    </g>
    <g id="ytick_3">
     <g id="line2d_9">
      <g>
       <use xlink:href="#m429f4b58bd" x="43.78125" y="196.773438" style="stroke: #000000; stroke-width: 0.8"/>
      </g>
     </g>
     <g id="text_10">
      <!-- 0.4 -->
      <g transform="translate(20.878125 200.572656) scale(0.1 -0.1)">
       <use xlink:href="#DejaVuSans-30"/>
       <use xlink:href="#DejaVuSans-2e" x="63.623047"/>
       <use xlink:href="#DejaVuSans-34" x="95.410156"/>
      </g>
     </g>
    </g>
    <g id="ytick_4">
     <g id="line2d_10">
      <g>
       <use xlink:href="#m429f4b58bd" x="43.78125" y="138.129687" style="stroke: #000000; stroke-width: 0.8"/>
      </g>
     </g>
     <g id="text_11">
      <!-- 0.6 -->
      <g transform="translate(20.878125 141.928906) scale(0.1 -0.1)">
       <use xlink:href="#DejaVuSans-30"/>
       <use xlink:href="#DejaVuSans-2e" x="63.623047"/>
       <use xlink:href="#DejaVuSans-36" x="95.410156"/>
      </g>
     </g>
    </g>
    <g id="ytick_5">
     <g id="line2d_11">
      <g>
       <use xlink:href="#m429f4b58bd" x="43.78125" y="79.485938" style="stroke: #000000; stroke-width: 0.8"/>
      </g>
     </g>
     <g id="text_12">
      <!-- 0.8 -->
      <g transform="translate(20.878125 83.285156) scale(0.1 -0.1)">
       <use xlink:href="#DejaVuSans-30"/>
       <use xlink:href="#DejaVuSans-2e" x="63.623047"/>
       <use xlink:href="#DejaVuSans-38" x="95.410156"/>
      </g>
     </g>
    </g>
    <g id="ytick_6">
     <g id="line2d_12">
      <g>
       <use xlink:href="#m429f4b58bd" x="43.78125" y="20.842188" style="stroke: #000000; stroke-width: 0.8"/>
      </g>
     </g>
     <g id="text_13">
      <!-- 1.0 -->
      <g transform="translate(20.878125 24.641406) scale(0.1 -0.1)">
       <use xlink:href="#DejaVuSans-31"/>
       <use xlink:href="#DejaVuSans-2e" x="63.623047"/>
       <use xlink:href="#DejaVuSans-30" x="95.410156"/>
      </g>
     </g>
    </g>
    <g id="text_14">
     <!-- Proportion -->
     <g transform="translate(14.798438 193.247656) rotate(-90) scale(0.1 -0.1)">
      <defs>
       <path id="DejaVuSans-50" d="M 1259 4147 
L 1259 2394 
L 2053 2394 
Q 2494 2394 2734 2622 
Q 2975 2850 2975 3272 
Q 2975 3691 2734 3919 
Q 2494 4147 2053 4147 
L 1259 4147 
z
M 628 4666 
L 2053 4666 
Q 2838 4666 3239 4311 
Q 3641 3956 3641 3272 
Q 3641 2581 3239 2228 
Q 2838 1875 2053 1875 
L 1259 1875 
L 1259 0 
L 628 0 
L 628 4666 
z
" transform="scale(0.015625)"/>
       <path id="DejaVuSans-72" d="M 2631 2963 
Q 2534 3019 2420 3045 
Q 2306 3072 2169 3072 
Q 1681 3072 1420 2755 
Q 1159 2438 1159 1844 
L 1159 0 
L 581 0 
L 581 3500 
L 1159 3500 
L 1159 2956 
Q 1341 3275 1631 3429 
Q 1922 3584 2338 3584 
Q 2397 3584 2469 3576 
Q 2541 3569 2628 3553 
L 2631 2963 
z
" transform="scale(0.015625)"/>
       <path id="DejaVuSans-6f" d="M 1959 3097 
Q 1497 3097 1228 2736 
Q 959 2375 959 1747 
Q 959 1119 1226 758 
Q 1494 397 1959 397 
Q 2419 397 2687 759 
Q 2956 1122 2956 1747 
Q 2956 2369 2687 2733 
Q 2419 3097 1959 3097 
z
M 1959 3584 
Q 2709 3584 3137 3096 
Q 3566 2609 3566 1747 
Q 3566 888 3137 398 
Q 2709 -91 1959 -91 
Q 1206 -91 779 398 
Q 353 888 353 1747 
Q 353 2609 779 3096 
Q 1206 3584 1959 3584 
z
" transform="scale(0.015625)"/>
       <path id="DejaVuSans-70" d="M 1159 525 
L 1159 -1331 
L 581 -1331 
L 581 3500 
L 1159 3500 
L 1159 2969 
Q 1341 3281 1617 3432 
Q 1894 3584 2278 3584 
Q 2916 3584 3314 3078 
Q 3713 2572 3713 1747 
Q 3713 922 3314 415 
Q 2916 -91 2278 -91 
Q 1894 -91 1617 61 
Q 1341 213 1159 525 
z
M 3116 1747 
Q 3116 2381 2855 2742 
Q 2594 3103 2138 3103 
Q 1681 3103 1420 2742 
Q 1159 2381 1159 1747 
Q 1159 1113 1420 752 
Q 1681 391 2138 391 
Q 2594 391 2855 752 
Q 3116 1113 3116 1747 
z
" transform="scale(0.015625)"/>
       <path id="DejaVuSans-69" d="M 603 3500 
L 1178 3500 
L 1178 0 
L 603 0 
L 603 3500 
z
M 603 4863 
L 1178 4863 
L 1178 4134 
L 603 4134 
L 603 4863 
z
" transform="scale(0.015625)"/>
      </defs>
      <use xlink:href="#DejaVuSans-50"/>
      <use xlink:href="#DejaVuSans-72" x="58.552734"/>
      <use xlink:href="#DejaVuSans-6f" x="97.416016"/>
      <use xlink:href="#DejaVuSans-70" x="158.597656"/>
      <use xlink:href="#DejaVuSans-6f" x="222.074219"/>
      <use xlink:href="#DejaVuSans-72" x="283.255859"/>
      <use xlink:href="#DejaVuSans-74" x="324.369141"/>
      <use xlink:href="#DejaVuSans-69" x="363.578125"/>
      <use xlink:href="#DejaVuSans-6f" x="391.361328"/>
      <use xlink:href="#DejaVuSans-6e" x="452.542969"/>
     </g>
    </g>
   </g>
   <g id="line2d_13">
    <path d="M 57.049368 314.060938 
L 57.154128 314.002294 
L 57.191543 313.914328 
L 57.191543 313.899667 
L 57.301291 311.202055 
L 57.30628 311.099428 
L 57.416029 300.528892 
L 57.418523 300.528892 
L 57.418523 300.426266 
L 57.528272 276.074448 
L 57.530766 276.074448 
L 57.530766 275.971822 
L 57.640515 239.143547 
L 57.643009 239.099564 
L 57.643009 239.04092 
L 57.752758 199.060544 
L 57.755252 199.060544 
L 57.755252 198.957917 
L 57.865001 160.502278 
L 57.867495 160.502278 
L 57.867495 160.399652 
L 57.977243 126.386277 
L 57.979738 126.386277 
L 57.979738 126.28365 
L 58.089486 100.084555 
L 58.091981 100.055233 
L 58.091981 99.981928 
L 58.201729 80.380255 
L 58.204224 80.380255 
L 58.204224 80.277628 
L 58.313972 66.584313 
L 58.316467 66.54033 
L 58.316467 66.481686 
L 58.426215 57.362583 
L 58.42871 57.3186 
L 58.42871 57.259956 
L 58.538458 49.562964 
L 58.543447 49.460338 
L 58.653196 44.02113 
L 58.658184 43.918503 
L 58.767933 40.399878 
L 58.772922 40.297252 
L 58.88267 37.570317 
L 58.890153 37.497013 
L 58.890153 37.467691 
L 58.999902 35.825666 
L 59.007385 35.767022 
L 59.007385 35.723039 
L 59.117133 34.315589 
L 59.124616 34.227623 
L 59.124616 34.212963 
L 59.234365 33.201358 
L 59.254319 33.098731 
L 59.364068 32.321702 
L 59.379034 32.219075 
L 59.488782 31.310097 
L 59.516219 31.20747 
L 59.623474 30.694338 
L 59.665877 30.591711 
L 59.775625 30.137222 
L 59.818028 30.034595 
L 59.927777 29.726716 
L 59.95272 29.624089 
L 60.05748 29.272227 
L 60.117343 29.184261 
L 60.117343 29.1696 
L 60.227092 28.891042 
L 60.294438 28.788416 
L 60.404186 28.480536 
L 60.446589 28.377909 
L 60.556338 28.084691 
L 60.593752 27.982064 
L 60.696018 27.674184 
L 60.748398 27.571558 
L 60.855652 27.293 
L 60.895561 27.190373 
L 60.997827 27.014442 
L 61.05769 26.911816 
L 61.167438 26.677241 
L 61.21483 26.574614 
L 61.322084 26.252073 
L 61.386936 26.164108 
L 61.386936 26.149447 
L 61.489202 25.826906 
L 61.544076 25.72428 
L 61.65133 25.519027 
L 61.756091 25.4164 
L 61.863345 25.299113 
L 61.963117 25.196486 
L 62.052911 25.064538 
L 62.297351 24.961911 
L 62.4071 24.829963 
L 62.56424 24.727336 
L 62.644057 24.668692 
L 62.851083 24.566066 
L 62.955843 24.448778 
L 63.090535 24.346152 
L 63.195295 24.228864 
L 63.310032 24.126238 
L 63.402321 24.00895 
L 63.741544 23.906323 
L 63.816373 23.789036 
L 64.010927 23.686409 
L 64.080767 23.627766 
L 64.434956 23.525139 
L 64.529739 23.451834 
L 64.799123 23.349208 
L 64.814088 23.319886 
L 65.2456 23.217259 
L 65.337889 23.158616 
L 65.462603 23.055989 
L 65.544915 22.997345 
L 66.006358 22.894719 
L 66.061232 22.836075 
L 66.268258 22.733448 
L 66.323133 22.689466 
L 66.921762 22.586839 
L 66.994096 22.513534 
L 67.45554 22.410908 
L 67.45554 22.396247 
L 68.463232 22.29362 
L 68.530578 22.264298 
L 69.605616 22.161672 
L 69.672962 22.13235 
L 70.46864 22.029723 
L 70.46864 22.015062 
L 71.074752 21.912436 
L 71.094707 21.883114 
L 71.917822 21.780487 
L 71.917822 21.765827 
L 73.21984 21.6632 
L 73.21984 21.648539 
L 76.123192 21.545912 
L 76.123192 21.531252 
L 77.502534 21.428625 
L 77.589834 21.399303 
L 81.416072 21.296677 
L 81.416072 21.282016 
L 105.510899 21.179389 
L 105.510899 21.164728 
L 133.930822 21.062102 
L 133.930822 21.047441 
L 191.055017 20.944814 
L 191.055017 20.930153 
L 322.411732 20.856848 
L 322.411732 20.842188 
" clip-path="url(#p3740da8060)" style="fill: none; stroke: #1f77b4; stroke-width: 1.5; stroke-linecap: square"/>
   </g>
   <g id="patch_3">
    <path d="M 43.78125 314.060938 
L 43.78125 20.842188 
" style="fill: none; stroke: #000000; stroke-width: 0.8; stroke-linejoin: miter; stroke-linecap: square"/>
   </g>
   <g id="patch_4">
    <path d="M 43.78125 314.060938 
L 335.67985 314.060938 
" style="fill: none; stroke: #000000; stroke-width: 0.8; stroke-linejoin: miter; stroke-linecap: square"/>
   </g>
   <g id="text_15">
    <!-- rate = 0 | prefill_num_keys = 0 -->
    <g transform="translate(111.929769 14.842188) scale(0.1 -0.1)">
     <defs>
      <path id="DejaVuSans-20" transform="scale(0.015625)"/>
      <path id="DejaVuSans-3d" d="M 678 2906 
L 4684 2906 
L 4684 2381 
L 678 2381 
L 678 2906 
z
M 678 1631 
L 4684 1631 
L 4684 1100 
L 678 1100 
L 678 1631 
z
" transform="scale(0.015625)"/>
      <path id="DejaVuSans-7c" d="M 1344 4891 
L 1344 -1509 
L 813 -1509 
L 813 4891 
L 1344 4891 
z
" transform="scale(0.015625)"/>
      <path id="DejaVuSans-66" d="M 2375 4863 
L 2375 4384 
L 1825 4384 
Q 1516 4384 1395 4259 
Q 1275 4134 1275 3809 
L 1275 3500 
L 2222 3500 
L 2222 3053 
L 1275 3053 
L 1275 0 
L 697 0 
L 697 3053 
L 147 3053 
L 147 3500 
L 697 3500 
L 697 3744 
Q 697 4328 969 4595 
Q 1241 4863 1831 4863 
L 2375 4863 
z
" transform="scale(0.015625)"/>
      <path id="DejaVuSans-75" d="M 544 1381 
L 544 3500 
L 1119 3500 
L 1119 1403 
Q 1119 906 1312 657 
Q 1506 409 1894 409 
Q 2359 409 2629 706 
Q 2900 1003 2900 1516 
L 2900 3500 
L 3475 3500 
L 3475 0 
L 2900 0 
L 2900 538 
Q 2691 219 2414 64 
Q 2138 -91 1772 -91 
Q 1169 -91 856 284 
Q 544 659 544 1381 
z
M 1991 3584 
L 1991 3584 
z
" transform="scale(0.015625)"/>
      <path id="DejaVuSans-6b" d="M 581 4863 
L 1159 4863 
L 1159 1991 
L 2875 3500 
L 3609 3500 
L 1753 1863 
L 3688 0 
L 2938 0 
L 1159 1709 
L 1159 0 
L 581 0 
L 581 4863 
z
" transform="scale(0.015625)"/>
     </defs>
     <use xlink:href="#DejaVuSans-72"/>
     <use xlink:href="#DejaVuSans-61" x="41.113281"/>
     <use xlink:href="#DejaVuSans-74" x="102.392578"/>
     <use xlink:href="#DejaVuSans-65" x="141.601562"/>
     <use xlink:href="#DejaVuSans-20" x="203.125"/>
     <use xlink:href="#DejaVuSans-3d" x="234.912109"/>
     <use xlink:href="#DejaVuSans-20" x="318.701172"/>
     <use xlink:href="#DejaVuSans-30" x="350.488281"/>
     <use xlink:href="#DejaVuSans-20" x="414.111328"/>
     <use xlink:href="#DejaVuSans-7c" x="445.898438"/>
     <use xlink:href="#DejaVuSans-20" x="479.589844"/>
     <use xlink:href="#DejaVuSans-70" x="511.376953"/>
     <use xlink:href="#DejaVuSans-72" x="574.853516"/>
     <use xlink:href="#DejaVuSans-65" x="613.716797"/>
     <use xlink:href="#DejaVuSans-66" x="675.240234"/>
     <use xlink:href="#DejaVuSans-69" x="710.445312"/>
     <use xlink:href="#DejaVuSans-6c" x="738.228516"/>
     <use xlink:href="#DejaVuSans-6c" x="766.011719"/>
     <use xlink:href="#DejaVuSans-5f" x="793.794922"/>
     <use xlink:href="#DejaVuSans-6e" x="843.794922"/>
     <use xlink:href="#DejaVuSans-75" x="907.173828"/>
     <use xlink:href="#DejaVuSans-6d" x="970.552734"/>
     <use xlink:href="#DejaVuSans-5f" x="1067.964844"/>
     <use xlink:href="#DejaVuSans-6b" x="1117.964844"/>
     <use xlink:href="#DejaVuSans-65" x="1172.25"/>
     <use xlink:href="#DejaVuSans-79" x="1233.773438"/>
     <use xlink:href="#DejaVuSans-73" x="1292.953125"/>
     <use xlink:href="#DejaVuSans-20" x="1345.052734"/>
     <use xlink:href="#DejaVuSans-3d" x="1376.839844"/>
     <use xlink:href="#DejaVuSans-20" x="1460.628906"/>
     <use xlink:href="#DejaVuSans-30" x="1492.416016"/>
    </g>
   </g>
  </g>
  <g id="legend_1">
   <g id="text_16">
    <!-- other_vars -->
    <g transform="translate(625.805156 171.089844) scale(0.1 -0.1)">
     <defs>
      <path id="DejaVuSans-68" d="M 3513 2113 
L 3513 0 
L 2938 0 
L 2938 2094 
Q 2938 2591 2744 2837 
Q 2550 3084 2163 3084 
Q 1697 3084 1428 2787 
Q 1159 2491 1159 1978 
L 1159 0 
L 581 0 
L 581 4863 
L 1159 4863 
L 1159 2956 
Q 1366 3272 1645 3428 
Q 1925 3584 2291 3584 
Q 2894 3584 3203 3211 
Q 3513 2838 3513 2113 
z
" transform="scale(0.015625)"/>
      <path id="DejaVuSans-76" d="M 191 3500 
L 800 3500 
L 1894 563 
L 2988 3500 
L 3597 3500 
L 2284 0 
L 1503 0 
L 191 3500 
z
" transform="scale(0.015625)"/>
     </defs>
     <use xlink:href="#DejaVuSans-6f"/>
     <use xlink:href="#DejaVuSans-74" x="61.181641"/>
     <use xlink:href="#DejaVuSans-68" x="100.390625"/>
     <use xlink:href="#DejaVuSans-65" x="163.769531"/>
     <use xlink:href="#DejaVuSans-72" x="225.292969"/>
     <use xlink:href="#DejaVuSans-5f" x="266.40625"/>
     <use xlink:href="#DejaVuSans-76" x="316.40625"/>
     <use xlink:href="#DejaVuSans-61" x="375.585938"/>
     <use xlink:href="#DejaVuSans-72" x="436.865234"/>
     <use xlink:href="#DejaVuSans-73" x="477.978516"/>
    </g>
   </g>
   <g id="line2d_14">
    <path d="M 357.216875 182.546094 
L 367.216875 182.546094 
L 367.216875 182.546094 
L 377.216875 182.546094 
L 377.216875 182.546094 
" style="fill: none; stroke: #1f77b4; stroke-width: 1.5; stroke-linecap: square"/>
   </g>
   <g id="text_17">
    <!-- cmd=put,etcd,tls,enclave=virtual,worker_threads=0,clients=1,connections=1,prefill_value_size=0,total=20000 -->
    <g transform="translate(385.216875 186.046094) scale(0.1 -0.1)">
     <defs>
      <path id="DejaVuSans-64" d="M 2906 2969 
L 2906 4863 
L 3481 4863 
L 3481 0 
L 2906 0 
L 2906 525 
Q 2725 213 2448 61 
Q 2172 -91 1784 -91 
Q 1150 -91 751 415 
Q 353 922 353 1747 
Q 353 2572 751 3078 
Q 1150 3584 1784 3584 
Q 2172 3584 2448 3432 
Q 2725 3281 2906 2969 
z
M 947 1747 
Q 947 1113 1208 752 
Q 1469 391 1925 391 
Q 2381 391 2643 752 
Q 2906 1113 2906 1747 
Q 2906 2381 2643 2742 
Q 2381 3103 1925 3103 
Q 1469 3103 1208 2742 
Q 947 2381 947 1747 
z
" transform="scale(0.015625)"/>
      <path id="DejaVuSans-2c" d="M 750 794 
L 1409 794 
L 1409 256 
L 897 -744 
L 494 -744 
L 750 256 
L 750 794 
z
" transform="scale(0.015625)"/>
      <path id="DejaVuSans-77" d="M 269 3500 
L 844 3500 
L 1563 769 
L 2278 3500 
L 2956 3500 
L 3675 769 
L 4391 3500 
L 4966 3500 
L 4050 0 
L 3372 0 
L 2619 2869 
L 1863 0 
L 1184 0 
L 269 3500 
z
" transform="scale(0.015625)"/>
      <path id="DejaVuSans-7a" d="M 353 3500 
L 3084 3500 
L 3084 2975 
L 922 459 
L 3084 459 
L 3084 0 
L 275 0 
L 275 525 
L 2438 3041 
L 353 3041 
L 353 3500 
z
" transform="scale(0.015625)"/>
     </defs>
     <use xlink:href="#DejaVuSans-63"/>
     <use xlink:href="#DejaVuSans-6d" x="54.980469"/>
     <use xlink:href="#DejaVuSans-64" x="152.392578"/>
     <use xlink:href="#DejaVuSans-3d" x="215.869141"/>
     <use xlink:href="#DejaVuSans-70" x="299.658203"/>
     <use xlink:href="#DejaVuSans-75" x="363.134766"/>
     <use xlink:href="#DejaVuSans-74" x="426.513672"/>
     <use xlink:href="#DejaVuSans-2c" x="465.722656"/>
     <use xlink:href="#DejaVuSans-65" x="497.509766"/>
     <use xlink:href="#DejaVuSans-74" x="559.033203"/>
     <use xlink:href="#DejaVuSans-63" x="598.242188"/>
     <use xlink:href="#DejaVuSans-64" x="653.222656"/>
     <use xlink:href="#DejaVuSans-2c" x="716.699219"/>
     <use xlink:href="#DejaVuSans-74" x="748.486328"/>
     <use xlink:href="#DejaVuSans-6c" x="787.695312"/>
     <use xlink:href="#DejaVuSans-73" x="815.478516"/>
     <use xlink:href="#DejaVuSans-2c" x="867.578125"/>
     <use xlink:href="#DejaVuSans-65" x="899.365234"/>
     <use xlink:href="#DejaVuSans-6e" x="960.888672"/>
     <use xlink:href="#DejaVuSans-63" x="1024.267578"/>
     <use xlink:href="#DejaVuSans-6c" x="1079.248047"/>
     <use xlink:href="#DejaVuSans-61" x="1107.03125"/>
     <use xlink:href="#DejaVuSans-76" x="1168.310547"/>
     <use xlink:href="#DejaVuSans-65" x="1227.490234"/>
     <use xlink:href="#DejaVuSans-3d" x="1289.013672"/>
     <use xlink:href="#DejaVuSans-76" x="1372.802734"/>
     <use xlink:href="#DejaVuSans-69" x="1431.982422"/>
     <use xlink:href="#DejaVuSans-72" x="1459.765625"/>
     <use xlink:href="#DejaVuSans-74" x="1500.878906"/>
     <use xlink:href="#DejaVuSans-75" x="1540.087891"/>
     <use xlink:href="#DejaVuSans-61" x="1603.466797"/>
     <use xlink:href="#DejaVuSans-6c" x="1664.746094"/>
     <use xlink:href="#DejaVuSans-2c" x="1692.529297"/>
     <use xlink:href="#DejaVuSans-77" x="1724.316406"/>
     <use xlink:href="#DejaVuSans-6f" x="1806.103516"/>
     <use xlink:href="#DejaVuSans-72" x="1867.285156"/>
     <use xlink:href="#DejaVuSans-6b" x="1908.398438"/>
     <use xlink:href="#DejaVuSans-65" x="1962.683594"/>
     <use xlink:href="#DejaVuSans-72" x="2024.207031"/>
     <use xlink:href="#DejaVuSans-5f" x="2065.320312"/>
     <use xlink:href="#DejaVuSans-74" x="2115.320312"/>
     <use xlink:href="#DejaVuSans-68" x="2154.529297"/>
     <use xlink:href="#DejaVuSans-72" x="2217.908203"/>
     <use xlink:href="#DejaVuSans-65" x="2256.771484"/>
     <use xlink:href="#DejaVuSans-61" x="2318.294922"/>
     <use xlink:href="#DejaVuSans-64" x="2379.574219"/>
     <use xlink:href="#DejaVuSans-73" x="2443.050781"/>
     <use xlink:href="#DejaVuSans-3d" x="2495.150391"/>
     <use xlink:href="#DejaVuSans-30" x="2578.939453"/>
     <use xlink:href="#DejaVuSans-2c" x="2642.5625"/>
     <use xlink:href="#DejaVuSans-63" x="2674.349609"/>
     <use xlink:href="#DejaVuSans-6c" x="2729.330078"/>
     <use xlink:href="#DejaVuSans-69" x="2757.113281"/>
     <use xlink:href="#DejaVuSans-65" x="2784.896484"/>
     <use xlink:href="#DejaVuSans-6e" x="2846.419922"/>
     <use xlink:href="#DejaVuSans-74" x="2909.798828"/>
     <use xlink:href="#DejaVuSans-73" x="2949.007812"/>
     <use xlink:href="#DejaVuSans-3d" x="3001.107422"/>
     <use xlink:href="#DejaVuSans-31" x="3084.896484"/>
     <use xlink:href="#DejaVuSans-2c" x="3148.519531"/>
     <use xlink:href="#DejaVuSans-63" x="3180.306641"/>
     <use xlink:href="#DejaVuSans-6f" x="3235.287109"/>
     <use xlink:href="#DejaVuSans-6e" x="3296.46875"/>
     <use xlink:href="#DejaVuSans-6e" x="3359.847656"/>
     <use xlink:href="#DejaVuSans-65" x="3423.226562"/>
     <use xlink:href="#DejaVuSans-63" x="3484.75"/>
     <use xlink:href="#DejaVuSans-74" x="3539.730469"/>
     <use xlink:href="#DejaVuSans-69" x="3578.939453"/>
     <use xlink:href="#DejaVuSans-6f" x="3606.722656"/>
     <use xlink:href="#DejaVuSans-6e" x="3667.904297"/>
     <use xlink:href="#DejaVuSans-73" x="3731.283203"/>
     <use xlink:href="#DejaVuSans-3d" x="3783.382812"/>
     <use xlink:href="#DejaVuSans-31" x="3867.171875"/>
     <use xlink:href="#DejaVuSans-2c" x="3930.794922"/>
     <use xlink:href="#DejaVuSans-70" x="3962.582031"/>
     <use xlink:href="#DejaVuSans-72" x="4026.058594"/>
     <use xlink:href="#DejaVuSans-65" x="4064.921875"/>
     <use xlink:href="#DejaVuSans-66" x="4126.445312"/>
     <use xlink:href="#DejaVuSans-69" x="4161.650391"/>
     <use xlink:href="#DejaVuSans-6c" x="4189.433594"/>
     <use xlink:href="#DejaVuSans-6c" x="4217.216797"/>
     <use xlink:href="#DejaVuSans-5f" x="4245"/>
     <use xlink:href="#DejaVuSans-76" x="4295"/>
     <use xlink:href="#DejaVuSans-61" x="4354.179688"/>
     <use xlink:href="#DejaVuSans-6c" x="4415.458984"/>
     <use xlink:href="#DejaVuSans-75" x="4443.242188"/>
     <use xlink:href="#DejaVuSans-65" x="4506.621094"/>
     <use xlink:href="#DejaVuSans-5f" x="4568.144531"/>
     <use xlink:href="#DejaVuSans-73" x="4618.144531"/>
     <use xlink:href="#DejaVuSans-69" x="4670.244141"/>
     <use xlink:href="#DejaVuSans-7a" x="4698.027344"/>
     <use xlink:href="#DejaVuSans-65" x="4750.517578"/>
     <use xlink:href="#DejaVuSans-3d" x="4812.041016"/>
     <use xlink:href="#DejaVuSans-30" x="4895.830078"/>
     <use xlink:href="#DejaVuSans-2c" x="4959.453125"/>
     <use xlink:href="#DejaVuSans-74" x="4991.240234"/>
     <use xlink:href="#DejaVuSans-6f" x="5030.449219"/>
     <use xlink:href="#DejaVuSans-74" x="5091.630859"/>
     <use xlink:href="#DejaVuSans-61" x="5130.839844"/>
     <use xlink:href="#DejaVuSans-6c" x="5192.119141"/>
     <use xlink:href="#DejaVuSans-3d" x="5219.902344"/>
     <use xlink:href="#DejaVuSans-32" x="5303.691406"/>
     <use xlink:href="#DejaVuSans-30" x="5367.314453"/>
     <use xlink:href="#DejaVuSans-30" x="5430.9375"/>
     <use xlink:href="#DejaVuSans-30" x="5494.560547"/>
     <use xlink:href="#DejaVuSans-30" x="5558.183594"/>
    </g>
   </g>
  </g>
 </g>
 <defs>
  <clipPath id="p3740da8060">
   <rect x="43.78125" y="20.842188" width="291.8986" height="293.21875"/>
  </clipPath>
 </defs>
</svg>
