<?xml version="1.0" encoding="utf-8" standalone="no"?>
<!DOCTYPE svg PUBLIC "-//W3C//DTD SVG 1.1//EN"
  "http://www.w3.org/Graphics/SVG/1.1/DTD/svg11.dtd">
<svg xmlns:xlink="http://www.w3.org/1999/xlink" width="798.451265pt" height="351.674688pt" viewBox="0 0 798.451265 351.674688" xmlns="http://www.w3.org/2000/svg" version="1.1">
 <metadata>
  <rdf:RDF xmlns:dc="http://purl.org/dc/elements/1.1/" xmlns:cc="http://creativecommons.org/ns#" xmlns:rdf="http://www.w3.org/1999/02/22-rdf-syntax-ns#">
   <cc:Work>
    <dc:type rdf:resource="http://purl.org/dc/dcmitype/StillImage"/>
    <dc:date>2022-10-12T12:57:47.202168</dc:date>
    <dc:format>image/svg+xml</dc:format>
    <dc:creator>
     <cc:Agent>
      <dc:title>Matplotlib v3.6.1, https://matplotlib.org/</dc:title>
     </cc:Agent>
    </dc:creator>
   </cc:Work>
  </rdf:RDF>
 </metadata>
 <defs>
  <style type="text/css">*{stroke-linejoin: round; stroke-linecap: butt}</style>
 </defs>
 <g id="figure_1">
  <g id="patch_1">
   <path d="M 0 351.674688 
L 798.451265 351.674688 
L 798.451265 0 
L 0 0 
z
" style="fill: #ffffff"/>
  </g>
  <g id="axes_1">
   <g id="patch_2">
    <path d="M 58.801563 314.118438 
L 255.250465 314.118438 
L 255.250465 20.798437 
L 58.801563 20.798437 
z
" style="fill: #ffffff"/>
   </g>
   <g id="patch_3">
    <path d="M 0 0 
z
" clip-path="url(#p88d9726735)" style="fill: #3274a1"/>
   </g>
   <g id="matplotlib.axis_1">
    <g id="xtick_1">
     <g id="line2d_1">
      <defs>
       <path id="m922224e795" d="M 0 0 
L 0 3.5 
" style="stroke: #000000; stroke-width: 0.8"/>
      </defs>
      <g>
       <use xlink:href="#m922224e795" x="157.026014" y="314.118438" style="stroke: #000000; stroke-width: 0.8"/>
      </g>
     </g>
     <g id="text_1">
      <!-- 0 -->
      <g transform="translate(153.844764 328.716875) scale(0.1 -0.1)">
       <defs>
        <path id="DejaVuSans-30" d="M 2034 4250 
Q 1547 4250 1301 3770 
Q 1056 3291 1056 2328 
Q 1056 1369 1301 889 
Q 1547 409 2034 409 
Q 2525 409 2770 889 
Q 3016 1369 3016 2328 
Q 3016 3291 2770 3770 
Q 2525 4250 2034 4250 
z
M 2034 4750 
Q 2819 4750 3233 4129 
Q 3647 3509 3647 2328 
Q 3647 1150 3233 529 
Q 2819 -91 2034 -91 
Q 1250 -91 836 529 
Q 422 1150 422 2328 
Q 422 3509 836 4129 
Q 1250 4750 2034 4750 
z
" transform="scale(0.015625)"/>
       </defs>
       <use xlink:href="#DejaVuSans-30"/>
      </g>
     </g>
    </g>
    <g id="text_2">
     <!-- rate -->
     <g transform="translate(146.869764 342.395) scale(0.1 -0.1)">
      <defs>
       <path id="DejaVuSans-72" d="M 2631 2963 
Q 2534 3019 2420 3045 
Q 2306 3072 2169 3072 
Q 1681 3072 1420 2755 
Q 1159 2438 1159 1844 
L 1159 0 
L 581 0 
L 581 3500 
L 1159 3500 
L 1159 2956 
Q 1341 3275 1631 3429 
Q 1922 3584 2338 3584 
Q 2397 3584 2469 3576 
Q 2541 3569 2628 3553 
L 2631 2963 
z
" transform="scale(0.015625)"/>
       <path id="DejaVuSans-61" d="M 2194 1759 
Q 1497 1759 1228 1600 
Q 959 1441 959 1056 
Q 959 750 1161 570 
Q 1363 391 1709 391 
Q 2188 391 2477 730 
Q 2766 1069 2766 1631 
L 2766 1759 
L 2194 1759 
z
M 3341 1997 
L 3341 0 
L 2766 0 
L 2766 531 
Q 2569 213 2275 61 
Q 1981 -91 1556 -91 
Q 1019 -91 701 211 
Q 384 513 384 1019 
Q 384 1609 779 1909 
Q 1175 2209 1959 2209 
L 2766 2209 
L 2766 2266 
Q 2766 2663 2505 2880 
Q 2244 3097 1772 3097 
Q 1472 3097 1187 3025 
Q 903 2953 641 2809 
L 641 3341 
Q 956 3463 1253 3523 
Q 1550 3584 1831 3584 
Q 2591 3584 2966 3190 
Q 3341 2797 3341 1997 
z
" transform="scale(0.015625)"/>
       <path id="DejaVuSans-74" d="M 1172 4494 
L 1172 3500 
L 2356 3500 
L 2356 3053 
L 1172 3053 
L 1172 1153 
Q 1172 725 1289 603 
Q 1406 481 1766 481 
L 2356 481 
L 2356 0 
L 1766 0 
Q 1100 0 847 248 
Q 594 497 594 1153 
L 594 3053 
L 172 3053 
L 172 3500 
L 594 3500 
L 594 4494 
L 1172 4494 
z
" transform="scale(0.015625)"/>
       <path id="DejaVuSans-65" d="M 3597 1894 
L 3597 1613 
L 953 1613 
Q 991 1019 1311 708 
Q 1631 397 2203 397 
Q 2534 397 2845 478 
Q 3156 559 3463 722 
L 3463 178 
Q 3153 47 2828 -22 
Q 2503 -91 2169 -91 
Q 1331 -91 842 396 
Q 353 884 353 1716 
Q 353 2575 817 3079 
Q 1281 3584 2069 3584 
Q 2775 3584 3186 3129 
Q 3597 2675 3597 1894 
z
M 3022 2063 
Q 3016 2534 2758 2815 
Q 2500 3097 2075 3097 
Q 1594 3097 1305 2825 
Q 1016 2553 972 2059 
L 3022 2063 
z
" transform="scale(0.015625)"/>
      </defs>
      <use xlink:href="#DejaVuSans-72"/>
      <use xlink:href="#DejaVuSans-61" x="41.113281"/>
      <use xlink:href="#DejaVuSans-74" x="102.392578"/>
      <use xlink:href="#DejaVuSans-65" x="141.601562"/>
     </g>
    </g>
   </g>
   <g id="matplotlib.axis_2">
    <g id="ytick_1">
     <g id="line2d_2">
      <defs>
       <path id="m98aa252086" d="M 0 0 
L -3.5 0 
" style="stroke: #000000; stroke-width: 0.8"/>
      </defs>
      <g>
       <use xlink:href="#m98aa252086" x="58.801563" y="274.120256" style="stroke: #000000; stroke-width: 0.8"/>
      </g>
     </g>
     <g id="text_3">
      <!-- −0.04 -->
      <g transform="translate(21.15625 277.919474) scale(0.1 -0.1)">
       <defs>
        <path id="DejaVuSans-2212" d="M 678 2272 
L 4684 2272 
L 4684 1741 
L 678 1741 
L 678 2272 
z
" transform="scale(0.015625)"/>
        <path id="DejaVuSans-2e" d="M 684 794 
L 1344 794 
L 1344 0 
L 684 0 
L 684 794 
z
" transform="scale(0.015625)"/>
        <path id="DejaVuSans-34" d="M 2419 4116 
L 825 1625 
L 2419 1625 
L 2419 4116 
z
M 2253 4666 
L 3047 4666 
L 3047 1625 
L 3713 1625 
L 3713 1100 
L 3047 1100 
L 3047 0 
L 2419 0 
L 2419 1100 
L 313 1100 
L 313 1709 
L 2253 4666 
z
" transform="scale(0.015625)"/>
       </defs>
       <use xlink:href="#DejaVuSans-2212"/>
       <use xlink:href="#DejaVuSans-30" x="83.789062"/>
       <use xlink:href="#DejaVuSans-2e" x="147.412109"/>
       <use xlink:href="#DejaVuSans-30" x="179.199219"/>
       <use xlink:href="#DejaVuSans-34" x="242.822266"/>
      </g>
     </g>
    </g>
    <g id="ytick_2">
     <g id="line2d_3">
      <g>
       <use xlink:href="#m98aa252086" x="58.801563" y="220.789347" style="stroke: #000000; stroke-width: 0.8"/>
      </g>
     </g>
     <g id="text_4">
      <!-- −0.02 -->
      <g transform="translate(21.15625 224.588565) scale(0.1 -0.1)">
       <defs>
        <path id="DejaVuSans-32" d="M 1228 531 
L 3431 531 
L 3431 0 
L 469 0 
L 469 531 
Q 828 903 1448 1529 
Q 2069 2156 2228 2338 
Q 2531 2678 2651 2914 
Q 2772 3150 2772 3378 
Q 2772 3750 2511 3984 
Q 2250 4219 1831 4219 
Q 1534 4219 1204 4116 
Q 875 4013 500 3803 
L 500 4441 
Q 881 4594 1212 4672 
Q 1544 4750 1819 4750 
Q 2544 4750 2975 4387 
Q 3406 4025 3406 3419 
Q 3406 3131 3298 2873 
Q 3191 2616 2906 2266 
Q 2828 2175 2409 1742 
Q 1991 1309 1228 531 
z
" transform="scale(0.015625)"/>
       </defs>
       <use xlink:href="#DejaVuSans-2212"/>
       <use xlink:href="#DejaVuSans-30" x="83.789062"/>
       <use xlink:href="#DejaVuSans-2e" x="147.412109"/>
       <use xlink:href="#DejaVuSans-30" x="179.199219"/>
       <use xlink:href="#DejaVuSans-32" x="242.822266"/>
      </g>
     </g>
    </g>
    <g id="ytick_3">
     <g id="line2d_4">
      <g>
       <use xlink:href="#m98aa252086" x="58.801563" y="167.458437" style="stroke: #000000; stroke-width: 0.8"/>
      </g>
     </g>
     <g id="text_5">
      <!-- 0.00 -->
      <g transform="translate(29.535938 171.257656) scale(0.1 -0.1)">
       <use xlink:href="#DejaVuSans-30"/>
       <use xlink:href="#DejaVuSans-2e" x="63.623047"/>
       <use xlink:href="#DejaVuSans-30" x="95.410156"/>
       <use xlink:href="#DejaVuSans-30" x="159.033203"/>
      </g>
     </g>
    </g>
    <g id="ytick_4">
     <g id="line2d_5">
      <g>
       <use xlink:href="#m98aa252086" x="58.801563" y="114.127528" style="stroke: #000000; stroke-width: 0.8"/>
      </g>
     </g>
     <g id="text_6">
      <!-- 0.02 -->
      <g transform="translate(29.535938 117.926747) scale(0.1 -0.1)">
       <use xlink:href="#DejaVuSans-30"/>
       <use xlink:href="#DejaVuSans-2e" x="63.623047"/>
       <use xlink:href="#DejaVuSans-30" x="95.410156"/>
       <use xlink:href="#DejaVuSans-32" x="159.033203"/>
      </g>
     </g>
    </g>
    <g id="ytick_5">
     <g id="line2d_6">
      <g>
       <use xlink:href="#m98aa252086" x="58.801563" y="60.796619" style="stroke: #000000; stroke-width: 0.8"/>
      </g>
     </g>
     <g id="text_7">
      <!-- 0.04 -->
      <g transform="translate(29.535938 64.595838) scale(0.1 -0.1)">
       <use xlink:href="#DejaVuSans-30"/>
       <use xlink:href="#DejaVuSans-2e" x="63.623047"/>
       <use xlink:href="#DejaVuSans-30" x="95.410156"/>
       <use xlink:href="#DejaVuSans-34" x="159.033203"/>
      </g>
     </g>
    </g>
    <g id="text_8">
     <!-- achieved_throughput_ratio -->
     <g transform="translate(14.798438 234.590469) rotate(-90) scale(0.1 -0.1)">
      <defs>
       <path id="DejaVuSans-63" d="M 3122 3366 
L 3122 2828 
Q 2878 2963 2633 3030 
Q 2388 3097 2138 3097 
Q 1578 3097 1268 2742 
Q 959 2388 959 1747 
Q 959 1106 1268 751 
Q 1578 397 2138 397 
Q 2388 397 2633 464 
Q 2878 531 3122 666 
L 3122 134 
Q 2881 22 2623 -34 
Q 2366 -91 2075 -91 
Q 1284 -91 818 406 
Q 353 903 353 1747 
Q 353 2603 823 3093 
Q 1294 3584 2113 3584 
Q 2378 3584 2631 3529 
Q 2884 3475 3122 3366 
z
" transform="scale(0.015625)"/>
       <path id="DejaVuSans-68" d="M 3513 2113 
L 3513 0 
L 2938 0 
L 2938 2094 
Q 2938 2591 2744 2837 
Q 2550 3084 2163 3084 
Q 1697 3084 1428 2787 
Q 1159 2491 1159 1978 
L 1159 0 
L 581 0 
L 581 4863 
L 1159 4863 
L 1159 2956 
Q 1366 3272 1645 3428 
Q 1925 3584 2291 3584 
Q 2894 3584 3203 3211 
Q 3513 2838 3513 2113 
z
" transform="scale(0.015625)"/>
       <path id="DejaVuSans-69" d="M 603 3500 
L 1178 3500 
L 1178 0 
L 603 0 
L 603 3500 
z
M 603 4863 
L 1178 4863 
L 1178 4134 
L 603 4134 
L 603 4863 
z
" transform="scale(0.015625)"/>
       <path id="DejaVuSans-76" d="M 191 3500 
L 800 3500 
L 1894 563 
L 2988 3500 
L 3597 3500 
L 2284 0 
L 1503 0 
L 191 3500 
z
" transform="scale(0.015625)"/>
       <path id="DejaVuSans-64" d="M 2906 2969 
L 2906 4863 
L 3481 4863 
L 3481 0 
L 2906 0 
L 2906 525 
Q 2725 213 2448 61 
Q 2172 -91 1784 -91 
Q 1150 -91 751 415 
Q 353 922 353 1747 
Q 353 2572 751 3078 
Q 1150 3584 1784 3584 
Q 2172 3584 2448 3432 
Q 2725 3281 2906 2969 
z
M 947 1747 
Q 947 1113 1208 752 
Q 1469 391 1925 391 
Q 2381 391 2643 752 
Q 2906 1113 2906 1747 
Q 2906 2381 2643 2742 
Q 2381 3103 1925 3103 
Q 1469 3103 1208 2742 
Q 947 2381 947 1747 
z
" transform="scale(0.015625)"/>
       <path id="DejaVuSans-5f" d="M 3263 -1063 
L 3263 -1509 
L -63 -1509 
L -63 -1063 
L 3263 -1063 
z
" transform="scale(0.015625)"/>
       <path id="DejaVuSans-6f" d="M 1959 3097 
Q 1497 3097 1228 2736 
Q 959 2375 959 1747 
Q 959 1119 1226 758 
Q 1494 397 1959 397 
Q 2419 397 2687 759 
Q 2956 1122 2956 1747 
Q 2956 2369 2687 2733 
Q 2419 3097 1959 3097 
z
M 1959 3584 
Q 2709 3584 3137 3096 
Q 3566 2609 3566 1747 
Q 3566 888 3137 398 
Q 2709 -91 1959 -91 
Q 1206 -91 779 398 
Q 353 888 353 1747 
Q 353 2609 779 3096 
Q 1206 3584 1959 3584 
z
" transform="scale(0.015625)"/>
       <path id="DejaVuSans-75" d="M 544 1381 
L 544 3500 
L 1119 3500 
L 1119 1403 
Q 1119 906 1312 657 
Q 1506 409 1894 409 
Q 2359 409 2629 706 
Q 2900 1003 2900 1516 
L 2900 3500 
L 3475 3500 
L 3475 0 
L 2900 0 
L 2900 538 
Q 2691 219 2414 64 
Q 2138 -91 1772 -91 
Q 1169 -91 856 284 
Q 544 659 544 1381 
z
M 1991 3584 
L 1991 3584 
z
" transform="scale(0.015625)"/>
       <path id="DejaVuSans-67" d="M 2906 1791 
Q 2906 2416 2648 2759 
Q 2391 3103 1925 3103 
Q 1463 3103 1205 2759 
Q 947 2416 947 1791 
Q 947 1169 1205 825 
Q 1463 481 1925 481 
Q 2391 481 2648 825 
Q 2906 1169 2906 1791 
z
M 3481 434 
Q 3481 -459 3084 -895 
Q 2688 -1331 1869 -1331 
Q 1566 -1331 1297 -1286 
Q 1028 -1241 775 -1147 
L 775 -588 
Q 1028 -725 1275 -790 
Q 1522 -856 1778 -856 
Q 2344 -856 2625 -561 
Q 2906 -266 2906 331 
L 2906 616 
Q 2728 306 2450 153 
Q 2172 0 1784 0 
Q 1141 0 747 490 
Q 353 981 353 1791 
Q 353 2603 747 3093 
Q 1141 3584 1784 3584 
Q 2172 3584 2450 3431 
Q 2728 3278 2906 2969 
L 2906 3500 
L 3481 3500 
L 3481 434 
z
" transform="scale(0.015625)"/>
       <path id="DejaVuSans-70" d="M 1159 525 
L 1159 -1331 
L 581 -1331 
L 581 3500 
L 1159 3500 
L 1159 2969 
Q 1341 3281 1617 3432 
Q 1894 3584 2278 3584 
Q 2916 3584 3314 3078 
Q 3713 2572 3713 1747 
Q 3713 922 3314 415 
Q 2916 -91 2278 -91 
Q 1894 -91 1617 61 
Q 1341 213 1159 525 
z
M 3116 1747 
Q 3116 2381 2855 2742 
Q 2594 3103 2138 3103 
Q 1681 3103 1420 2742 
Q 1159 2381 1159 1747 
Q 1159 1113 1420 752 
Q 1681 391 2138 391 
Q 2594 391 2855 752 
Q 3116 1113 3116 1747 
z
" transform="scale(0.015625)"/>
      </defs>
      <use xlink:href="#DejaVuSans-61"/>
      <use xlink:href="#DejaVuSans-63" x="61.279297"/>
      <use xlink:href="#DejaVuSans-68" x="116.259766"/>
      <use xlink:href="#DejaVuSans-69" x="179.638672"/>
      <use xlink:href="#DejaVuSans-65" x="207.421875"/>
      <use xlink:href="#DejaVuSans-76" x="268.945312"/>
      <use xlink:href="#DejaVuSans-65" x="328.125"/>
      <use xlink:href="#DejaVuSans-64" x="389.648438"/>
      <use xlink:href="#DejaVuSans-5f" x="453.125"/>
      <use xlink:href="#DejaVuSans-74" x="503.125"/>
      <use xlink:href="#DejaVuSans-68" x="542.333984"/>
      <use xlink:href="#DejaVuSans-72" x="605.712891"/>
      <use xlink:href="#DejaVuSans-6f" x="644.576172"/>
      <use xlink:href="#DejaVuSans-75" x="705.757812"/>
      <use xlink:href="#DejaVuSans-67" x="769.136719"/>
      <use xlink:href="#DejaVuSans-68" x="832.613281"/>
      <use xlink:href="#DejaVuSans-70" x="895.992188"/>
      <use xlink:href="#DejaVuSans-75" x="959.46875"/>
      <use xlink:href="#DejaVuSans-74" x="1022.847656"/>
      <use xlink:href="#DejaVuSans-5f" x="1062.056641"/>
      <use xlink:href="#DejaVuSans-72" x="1112.056641"/>
      <use xlink:href="#DejaVuSans-61" x="1153.169922"/>
      <use xlink:href="#DejaVuSans-74" x="1214.449219"/>
      <use xlink:href="#DejaVuSans-69" x="1253.658203"/>
      <use xlink:href="#DejaVuSans-6f" x="1281.441406"/>
     </g>
    </g>
   </g>
   <g id="line2d_7">
    <path clip-path="url(#p88d9726735)" style="fill: none; stroke: #424242; stroke-width: 2.7; stroke-linecap: square"/>
   </g>
   <g id="patch_4">
    <path d="M 58.801563 314.118438 
L 58.801563 20.798437 
" style="fill: none; stroke: #000000; stroke-width: 0.8; stroke-linejoin: miter; stroke-linecap: square"/>
   </g>
   <g id="patch_5">
    <path d="M 58.801563 314.118438 
L 255.250465 314.118438 
" style="fill: none; stroke: #000000; stroke-width: 0.8; stroke-linejoin: miter; stroke-linecap: square"/>
   </g>
   <g id="text_9">
    <!-- prefill_num_keys = 0 -->
    <g transform="translate(104.793201 14.798437) scale(0.1 -0.1)">
     <defs>
      <path id="DejaVuSans-66" d="M 2375 4863 
L 2375 4384 
L 1825 4384 
Q 1516 4384 1395 4259 
Q 1275 4134 1275 3809 
L 1275 3500 
L 2222 3500 
L 2222 3053 
L 1275 3053 
L 1275 0 
L 697 0 
L 697 3053 
L 147 3053 
L 147 3500 
L 697 3500 
L 697 3744 
Q 697 4328 969 4595 
Q 1241 4863 1831 4863 
L 2375 4863 
z
" transform="scale(0.015625)"/>
      <path id="DejaVuSans-6c" d="M 603 4863 
L 1178 4863 
L 1178 0 
L 603 0 
L 603 4863 
z
" transform="scale(0.015625)"/>
      <path id="DejaVuSans-6e" d="M 3513 2113 
L 3513 0 
L 2938 0 
L 2938 2094 
Q 2938 2591 2744 2837 
Q 2550 3084 2163 3084 
Q 1697 3084 1428 2787 
Q 1159 2491 1159 1978 
L 1159 0 
L 581 0 
L 581 3500 
L 1159 3500 
L 1159 2956 
Q 1366 3272 1645 3428 
Q 1925 3584 2291 3584 
Q 2894 3584 3203 3211 
Q 3513 2838 3513 2113 
z
" transform="scale(0.015625)"/>
      <path id="DejaVuSans-6d" d="M 3328 2828 
Q 3544 3216 3844 3400 
Q 4144 3584 4550 3584 
Q 5097 3584 5394 3201 
Q 5691 2819 5691 2113 
L 5691 0 
L 5113 0 
L 5113 2094 
Q 5113 2597 4934 2840 
Q 4756 3084 4391 3084 
Q 3944 3084 3684 2787 
Q 3425 2491 3425 1978 
L 3425 0 
L 2847 0 
L 2847 2094 
Q 2847 2600 2669 2842 
Q 2491 3084 2119 3084 
Q 1678 3084 1418 2786 
Q 1159 2488 1159 1978 
L 1159 0 
L 581 0 
L 581 3500 
L 1159 3500 
L 1159 2956 
Q 1356 3278 1631 3431 
Q 1906 3584 2284 3584 
Q 2666 3584 2933 3390 
Q 3200 3197 3328 2828 
z
" transform="scale(0.015625)"/>
      <path id="DejaVuSans-6b" d="M 581 4863 
L 1159 4863 
L 1159 1991 
L 2875 3500 
L 3609 3500 
L 1753 1863 
L 3688 0 
L 2938 0 
L 1159 1709 
L 1159 0 
L 581 0 
L 581 4863 
z
" transform="scale(0.015625)"/>
      <path id="DejaVuSans-79" d="M 2059 -325 
Q 1816 -950 1584 -1140 
Q 1353 -1331 966 -1331 
L 506 -1331 
L 506 -850 
L 844 -850 
Q 1081 -850 1212 -737 
Q 1344 -625 1503 -206 
L 1606 56 
L 191 3500 
L 800 3500 
L 1894 763 
L 2988 3500 
L 3597 3500 
L 2059 -325 
z
" transform="scale(0.015625)"/>
      <path id="DejaVuSans-73" d="M 2834 3397 
L 2834 2853 
Q 2591 2978 2328 3040 
Q 2066 3103 1784 3103 
Q 1356 3103 1142 2972 
Q 928 2841 928 2578 
Q 928 2378 1081 2264 
Q 1234 2150 1697 2047 
L 1894 2003 
Q 2506 1872 2764 1633 
Q 3022 1394 3022 966 
Q 3022 478 2636 193 
Q 2250 -91 1575 -91 
Q 1294 -91 989 -36 
Q 684 19 347 128 
L 347 722 
Q 666 556 975 473 
Q 1284 391 1588 391 
Q 1994 391 2212 530 
Q 2431 669 2431 922 
Q 2431 1156 2273 1281 
Q 2116 1406 1581 1522 
L 1381 1569 
Q 847 1681 609 1914 
Q 372 2147 372 2553 
Q 372 3047 722 3315 
Q 1072 3584 1716 3584 
Q 2034 3584 2315 3537 
Q 2597 3491 2834 3397 
z
" transform="scale(0.015625)"/>
      <path id="DejaVuSans-20" transform="scale(0.015625)"/>
      <path id="DejaVuSans-3d" d="M 678 2906 
L 4684 2906 
L 4684 2381 
L 678 2381 
L 678 2906 
z
M 678 1631 
L 4684 1631 
L 4684 1100 
L 678 1100 
L 678 1631 
z
" transform="scale(0.015625)"/>
     </defs>
     <use xlink:href="#DejaVuSans-70"/>
     <use xlink:href="#DejaVuSans-72" x="63.476562"/>
     <use xlink:href="#DejaVuSans-65" x="102.339844"/>
     <use xlink:href="#DejaVuSans-66" x="163.863281"/>
     <use xlink:href="#DejaVuSans-69" x="199.068359"/>
     <use xlink:href="#DejaVuSans-6c" x="226.851562"/>
     <use xlink:href="#DejaVuSans-6c" x="254.634766"/>
     <use xlink:href="#DejaVuSans-5f" x="282.417969"/>
     <use xlink:href="#DejaVuSans-6e" x="332.417969"/>
     <use xlink:href="#DejaVuSans-75" x="395.796875"/>
     <use xlink:href="#DejaVuSans-6d" x="459.175781"/>
     <use xlink:href="#DejaVuSans-5f" x="556.587891"/>
     <use xlink:href="#DejaVuSans-6b" x="606.587891"/>
     <use xlink:href="#DejaVuSans-65" x="660.873047"/>
     <use xlink:href="#DejaVuSans-79" x="722.396484"/>
     <use xlink:href="#DejaVuSans-73" x="781.576172"/>
     <use xlink:href="#DejaVuSans-20" x="833.675781"/>
     <use xlink:href="#DejaVuSans-3d" x="865.462891"/>
     <use xlink:href="#DejaVuSans-20" x="949.251953"/>
     <use xlink:href="#DejaVuSans-30" x="981.039062"/>
    </g>
   </g>
  </g>
  <g id="legend_1">
   <g id="text_10">
    <!-- other_vars -->
    <g transform="translate(500.97314 170.979531) scale(0.1 -0.1)">
     <use xlink:href="#DejaVuSans-6f"/>
     <use xlink:href="#DejaVuSans-74" x="61.181641"/>
     <use xlink:href="#DejaVuSans-68" x="100.390625"/>
     <use xlink:href="#DejaVuSans-65" x="163.769531"/>
     <use xlink:href="#DejaVuSans-72" x="225.292969"/>
     <use xlink:href="#DejaVuSans-5f" x="266.40625"/>
     <use xlink:href="#DejaVuSans-76" x="316.40625"/>
     <use xlink:href="#DejaVuSans-61" x="375.585938"/>
     <use xlink:href="#DejaVuSans-72" x="436.865234"/>
     <use xlink:href="#DejaVuSans-73" x="477.978516"/>
    </g>
   </g>
   <g id="patch_6">
    <path d="M 265.502828 185.935781 
L 285.502828 185.935781 
L 285.502828 178.935781 
L 265.502828 178.935781 
z
" style="fill: #3274a1"/>
   </g>
   <g id="text_11">
    <!-- cmd=put,etcd,tls,enclave=virtual,worker_threads=0,clients=1,connections=1,prefill_value_size=0 -->
    <g transform="translate(293.502828 185.935781) scale(0.1 -0.1)">
     <defs>
      <path id="DejaVuSans-2c" d="M 750 794 
L 1409 794 
L 1409 256 
L 897 -744 
L 494 -744 
L 750 256 
L 750 794 
z
" transform="scale(0.015625)"/>
      <path id="DejaVuSans-77" d="M 269 3500 
L 844 3500 
L 1563 769 
L 2278 3500 
L 2956 3500 
L 3675 769 
L 4391 3500 
L 4966 3500 
L 4050 0 
L 3372 0 
L 2619 2869 
L 1863 0 
L 1184 0 
L 269 3500 
z
" transform="scale(0.015625)"/>
      <path id="DejaVuSans-31" d="M 794 531 
L 1825 531 
L 1825 4091 
L 703 3866 
L 703 4441 
L 1819 4666 
L 2450 4666 
L 2450 531 
L 3481 531 
L 3481 0 
L 794 0 
L 794 531 
z
" transform="scale(0.015625)"/>
      <path id="DejaVuSans-7a" d="M 353 3500 
L 3084 3500 
L 3084 2975 
L 922 459 
L 3084 459 
L 3084 0 
L 275 0 
L 275 525 
L 2438 3041 
L 353 3041 
L 353 3500 
z
" transform="scale(0.015625)"/>
     </defs>
     <use xlink:href="#DejaVuSans-63"/>
     <use xlink:href="#DejaVuSans-6d" x="54.980469"/>
     <use xlink:href="#DejaVuSans-64" x="152.392578"/>
     <use xlink:href="#DejaVuSans-3d" x="215.869141"/>
     <use xlink:href="#DejaVuSans-70" x="299.658203"/>
     <use xlink:href="#DejaVuSans-75" x="363.134766"/>
     <use xlink:href="#DejaVuSans-74" x="426.513672"/>
     <use xlink:href="#DejaVuSans-2c" x="465.722656"/>
     <use xlink:href="#DejaVuSans-65" x="497.509766"/>
     <use xlink:href="#DejaVuSans-74" x="559.033203"/>
     <use xlink:href="#DejaVuSans-63" x="598.242188"/>
     <use xlink:href="#DejaVuSans-64" x="653.222656"/>
     <use xlink:href="#DejaVuSans-2c" x="716.699219"/>
     <use xlink:href="#DejaVuSans-74" x="748.486328"/>
     <use xlink:href="#DejaVuSans-6c" x="787.695312"/>
     <use xlink:href="#DejaVuSans-73" x="815.478516"/>
     <use xlink:href="#DejaVuSans-2c" x="867.578125"/>
     <use xlink:href="#DejaVuSans-65" x="899.365234"/>
     <use xlink:href="#DejaVuSans-6e" x="960.888672"/>
     <use xlink:href="#DejaVuSans-63" x="1024.267578"/>
     <use xlink:href="#DejaVuSans-6c" x="1079.248047"/>
     <use xlink:href="#DejaVuSans-61" x="1107.03125"/>
     <use xlink:href="#DejaVuSans-76" x="1168.310547"/>
     <use xlink:href="#DejaVuSans-65" x="1227.490234"/>
     <use xlink:href="#DejaVuSans-3d" x="1289.013672"/>
     <use xlink:href="#DejaVuSans-76" x="1372.802734"/>
     <use xlink:href="#DejaVuSans-69" x="1431.982422"/>
     <use xlink:href="#DejaVuSans-72" x="1459.765625"/>
     <use xlink:href="#DejaVuSans-74" x="1500.878906"/>
     <use xlink:href="#DejaVuSans-75" x="1540.087891"/>
     <use xlink:href="#DejaVuSans-61" x="1603.466797"/>
     <use xlink:href="#DejaVuSans-6c" x="1664.746094"/>
     <use xlink:href="#DejaVuSans-2c" x="1692.529297"/>
     <use xlink:href="#DejaVuSans-77" x="1724.316406"/>
     <use xlink:href="#DejaVuSans-6f" x="1806.103516"/>
     <use xlink:href="#DejaVuSans-72" x="1867.285156"/>
     <use xlink:href="#DejaVuSans-6b" x="1908.398438"/>
     <use xlink:href="#DejaVuSans-65" x="1962.683594"/>
     <use xlink:href="#DejaVuSans-72" x="2024.207031"/>
     <use xlink:href="#DejaVuSans-5f" x="2065.320312"/>
     <use xlink:href="#DejaVuSans-74" x="2115.320312"/>
     <use xlink:href="#DejaVuSans-68" x="2154.529297"/>
     <use xlink:href="#DejaVuSans-72" x="2217.908203"/>
     <use xlink:href="#DejaVuSans-65" x="2256.771484"/>
     <use xlink:href="#DejaVuSans-61" x="2318.294922"/>
     <use xlink:href="#DejaVuSans-64" x="2379.574219"/>
     <use xlink:href="#DejaVuSans-73" x="2443.050781"/>
     <use xlink:href="#DejaVuSans-3d" x="2495.150391"/>
     <use xlink:href="#DejaVuSans-30" x="2578.939453"/>
     <use xlink:href="#DejaVuSans-2c" x="2642.5625"/>
     <use xlink:href="#DejaVuSans-63" x="2674.349609"/>
     <use xlink:href="#DejaVuSans-6c" x="2729.330078"/>
     <use xlink:href="#DejaVuSans-69" x="2757.113281"/>
     <use xlink:href="#DejaVuSans-65" x="2784.896484"/>
     <use xlink:href="#DejaVuSans-6e" x="2846.419922"/>
     <use xlink:href="#DejaVuSans-74" x="2909.798828"/>
     <use xlink:href="#DejaVuSans-73" x="2949.007812"/>
     <use xlink:href="#DejaVuSans-3d" x="3001.107422"/>
     <use xlink:href="#DejaVuSans-31" x="3084.896484"/>
     <use xlink:href="#DejaVuSans-2c" x="3148.519531"/>
     <use xlink:href="#DejaVuSans-63" x="3180.306641"/>
     <use xlink:href="#DejaVuSans-6f" x="3235.287109"/>
     <use xlink:href="#DejaVuSans-6e" x="3296.46875"/>
     <use xlink:href="#DejaVuSans-6e" x="3359.847656"/>
     <use xlink:href="#DejaVuSans-65" x="3423.226562"/>
     <use xlink:href="#DejaVuSans-63" x="3484.75"/>
     <use xlink:href="#DejaVuSans-74" x="3539.730469"/>
     <use xlink:href="#DejaVuSans-69" x="3578.939453"/>
     <use xlink:href="#DejaVuSans-6f" x="3606.722656"/>
     <use xlink:href="#DejaVuSans-6e" x="3667.904297"/>
     <use xlink:href="#DejaVuSans-73" x="3731.283203"/>
     <use xlink:href="#DejaVuSans-3d" x="3783.382812"/>
     <use xlink:href="#DejaVuSans-31" x="3867.171875"/>
     <use xlink:href="#DejaVuSans-2c" x="3930.794922"/>
     <use xlink:href="#DejaVuSans-70" x="3962.582031"/>
     <use xlink:href="#DejaVuSans-72" x="4026.058594"/>
     <use xlink:href="#DejaVuSans-65" x="4064.921875"/>
     <use xlink:href="#DejaVuSans-66" x="4126.445312"/>
     <use xlink:href="#DejaVuSans-69" x="4161.650391"/>
     <use xlink:href="#DejaVuSans-6c" x="4189.433594"/>
     <use xlink:href="#DejaVuSans-6c" x="4217.216797"/>
     <use xlink:href="#DejaVuSans-5f" x="4245"/>
     <use xlink:href="#DejaVuSans-76" x="4295"/>
     <use xlink:href="#DejaVuSans-61" x="4354.179688"/>
     <use xlink:href="#DejaVuSans-6c" x="4415.458984"/>
     <use xlink:href="#DejaVuSans-75" x="4443.242188"/>
     <use xlink:href="#DejaVuSans-65" x="4506.621094"/>
     <use xlink:href="#DejaVuSans-5f" x="4568.144531"/>
     <use xlink:href="#DejaVuSans-73" x="4618.144531"/>
     <use xlink:href="#DejaVuSans-69" x="4670.244141"/>
     <use xlink:href="#DejaVuSans-7a" x="4698.027344"/>
     <use xlink:href="#DejaVuSans-65" x="4750.517578"/>
     <use xlink:href="#DejaVuSans-3d" x="4812.041016"/>
     <use xlink:href="#DejaVuSans-30" x="4895.830078"/>
    </g>
   </g>
  </g>
 </g>
 <defs>
  <clipPath id="p88d9726735">
   <rect x="58.801563" y="20.798437" width="196.448903" height="293.32"/>
  </clipPath>
 </defs>
</svg>
